# xmcd CD database file
#
# Track frame offsets:
#	150
#	14242
#	25701
#	35568
#	49228
#	64574
#	73079
#	85112
#	96278
#	105929
#	120770
#	132943
#
# Disc length: 1955 seconds
#
# Revision: 2
# Processed by: cddbd v1.5.2PL0 Copyright (c) Steve Scherf et al.
# Submitted via: CDex 1.51
#
DISCID=9707a10c
DTITLE=MILIONÁRIO E JOSÉ RICO - 1969-DE LONGE TAMBÉM SE AMA(CALIFÓRNIA)
DYEAR=1969
DGENRE=Sertanejo
TTITLE0=DE LONGE TAMBÉM SE AMA
TTITLE1=SEMPRE SOFRENDO
TTITLE2=CIDADE MORENA
TTITLE3=HOMENAGEM A BELA VISTA
TTITLE4=JAMAIS QUERO TE VER
TTITLE5=DESTINOS IGUAIS
TTITLE6=RECORDANDO MATO GROSSO
TTITLE7=BRIGUINHAS DE AMOR
TTITLE8=MARTÍRIO DE AMOR
TTITLE9=BRIGUINHAS SEM RAZÃO
TTITLE10=ZÉ MACAIA
TTITLE11=TESOURO DA VIDA
EXTD=YEAR: 1969
EXTT0=
EXTT1=
EXTT2=
EXTT3=
EXTT4=
EXTT5=
EXTT6=
EXTT7=
EXTT8=
EXTT9=
EXTT10=
EXTT11=
PLAYORDER=
